REM DIRINDEX 1\2,1\3,1\4,1\5\6,1\5\7,1\8
REM DIRNAME cjc115,folder01,folder02,folder03,folder04,folder05,folder06,folder07
TITLE ""
FILE "133 Åy133ÅzUnit8 (1501 spell_1512 landmark).mp3" MP3
  TRACK 01 AUDIO
    TITLE "0:"
    INDEX 01 00:00:00
  TRACK 02 AUDIO
    TITLE "2:cjc115_5216"
    INDEX 01 00:00:07
  TRACK 03 AUDIO
    TITLE "0:"
    INDEX 01 00:01:22
  TRACK 04 AUDIO
    TITLE "3:cjc115_5217"
    INDEX 01 00:01:28
  TRACK 05 AUDIO
    TITLE "0:"
    INDEX 01 00:03:53
  TRACK 06 AUDIO
    TITLE "4:cjc115_5218"
    INDEX 01 00:03:63
  TRACK 07 AUDIO
    TITLE "0:"
    INDEX 01 00:07:25
  TRACK 08 AUDIO
    TITLE "2:cjc115_5219"
    INDEX 01 00:08:34
  TRACK 09 AUDIO
    TITLE "0:"
    INDEX 01 00:09:61
  TRACK 10 AUDIO
    TITLE "3:cjc115_5220"
    INDEX 01 00:09:67
  TRACK 11 AUDIO
    TITLE "0:"
    INDEX 01 00:11:64
  TRACK 12 AUDIO
    TITLE "4:cjc115_5221"
    INDEX 01 00:11:74
  TRACK 13 AUDIO
    TITLE "0:"
    INDEX 01 00:16:04
  TRACK 14 AUDIO
    TITLE "2:cjc115_5222"
    INDEX 01 00:17:04
  TRACK 15 AUDIO
    TITLE "0:"
    INDEX 01 00:18:13
  TRACK 16 AUDIO
    TITLE "3:cjc115_5223"
    INDEX 01 00:18:19
  TRACK 17 AUDIO
    TITLE "0:"
    INDEX 01 00:21:49
  TRACK 18 AUDIO
    TITLE "4:cjc115_5224"
    INDEX 01 00:21:60
  TRACK 19 AUDIO
    TITLE "0:"
    INDEX 01 00:25:31
  TRACK 20 AUDIO
    TITLE "2:cjc115_5225"
    INDEX 01 00:26:38
  TRACK 21 AUDIO
    TITLE "0:"
    INDEX 01 00:27:51
  TRACK 22 AUDIO
    TITLE "3:cjc115_5226"
    INDEX 01 00:27:53
  TRACK 23 AUDIO
    TITLE "0:"
    INDEX 01 00:29:58
  TRACK 24 AUDIO
    TITLE "4:cjc115_5227"
    INDEX 01 00:29:64
  TRACK 25 AUDIO
    TITLE "0:"
    INDEX 01 00:33:01
  TRACK 26 AUDIO
    TITLE "2:cjc115_5228"
    INDEX 01 00:34:08
  TRACK 27 AUDIO
    TITLE "0:"
    INDEX 01 00:35:15
  TRACK 28 AUDIO
    TITLE "3:cjc115_5229"
    INDEX 01 00:35:27
  TRACK 29 AUDIO
    TITLE "0:"
    INDEX 01 00:37:34
  TRACK 30 AUDIO
    TITLE "4:cjc115_5230"
    INDEX 01 00:37:42
  TRACK 31 AUDIO
    TITLE "0:"
    INDEX 01 00:40:40
  TRACK 32 AUDIO
    TITLE "2:cjc115_5231"
    INDEX 01 00:41:49
  TRACK 33 AUDIO
    TITLE "0:"
    INDEX 01 00:42:70
  TRACK 34 AUDIO
    TITLE "3:cjc115_5232"
    INDEX 01 00:42:74
  TRACK 35 AUDIO
    TITLE "0:"
    INDEX 01 00:44:22
  TRACK 36 AUDIO
    TITLE "4:cjc115_5233"
    INDEX 01 00:44:30
  TRACK 37 AUDIO
    TITLE "0:"
    INDEX 01 00:49:31
  TRACK 38 AUDIO
    TITLE "2:cjc115_5234"
    INDEX 01 00:50:35
  TRACK 39 AUDIO
    TITLE "0:"
    INDEX 01 00:51:69
  TRACK 40 AUDIO
    TITLE "3:cjc115_5235"
    INDEX 01 00:52:02
  TRACK 41 AUDIO
    TITLE "0:"
    INDEX 01 00:55:22
  TRACK 42 AUDIO
    TITLE "4:cjc115_5236"
    INDEX 01 00:55:26
  TRACK 43 AUDIO
    TITLE "0:"
    INDEX 01 00:59:65
  TRACK 44 AUDIO
    TITLE "2:cjc115_5237"
    INDEX 01 01:00:72
  TRACK 45 AUDIO
    TITLE "0:"
    INDEX 01 01:02:20
  TRACK 46 AUDIO
    TITLE "3:cjc115_5238"
    INDEX 01 01:02:24
  TRACK 47 AUDIO
    TITLE "0:"
    INDEX 01 01:06:04
  TRACK 48 AUDIO
    TITLE "4:cjc115_5239"
    INDEX 01 01:06:06
  TRACK 49 AUDIO
    TITLE "0:"
    INDEX 01 01:09:40
  TRACK 50 AUDIO
    TITLE "2:cjc115_5240"
    INDEX 01 01:10:45
  TRACK 51 AUDIO
    TITLE "0:"
    INDEX 01 01:11:54
  TRACK 52 AUDIO
    TITLE "3:cjc115_5241"
    INDEX 01 01:11:60
  TRACK 53 AUDIO
    TITLE "0:"
    INDEX 01 01:14:41
  TRACK 54 AUDIO
    TITLE "4:cjc115_5242"
    INDEX 01 01:14:43
  TRACK 55 AUDIO
    TITLE "0:"
    INDEX 01 01:18:06
  TRACK 56 AUDIO
    TITLE "2:cjc115_5243"
    INDEX 01 01:19:09
  TRACK 57 AUDIO
    TITLE "0:"
    INDEX 01 01:20:32
  TRACK 58 AUDIO
    TITLE "3:cjc115_5244"
    INDEX 01 01:20:36
  TRACK 59 AUDIO
    TITLE "0:"
    INDEX 01 01:21:43
  TRACK 60 AUDIO
    TITLE "4:cjc115_5245"
    INDEX 01 01:21:49
  TRACK 61 AUDIO
    TITLE "0:"
    INDEX 01 01:25:74
  TRACK 62 AUDIO
    TITLE "2:cjc115_5246"
    INDEX 01 01:27:06
  TRACK 63 AUDIO
    TITLE "0:"
    INDEX 01 01:28:25
  TRACK 64 AUDIO
    TITLE "3:cjc115_5247"
    INDEX 01 01:28:29
  TRACK 65 AUDIO
    TITLE "0:"
    INDEX 01 01:31:26
  TRACK 66 AUDIO
    TITLE "4:cjc115_5248"
    INDEX 01 01:31:32
  TRACK 67 AUDIO
    TITLE "0:"
    INDEX 01 01:36:05
  TRACK 68 AUDIO
    TITLE "2:cjc115_5249"
    INDEX 01 01:37:15
  TRACK 69 AUDIO
    TITLE "0:"
    INDEX 01 01:38:38
  TRACK 70 AUDIO
    TITLE "3:cjc115_5250"
    INDEX 01 01:38:45
  TRACK 71 AUDIO
    TITLE "0:"
    INDEX 01 01:41:05
  TRACK 72 AUDIO
    TITLE "4:cjc115_5251"
    INDEX 01 01:41:10
  TRACK 73 AUDIO
    TITLE "0:"
    INDEX 01 01:45:10
